{"title":"The 5th Wave 2016 TELESYNC x264 AC3-Garmin","uid":13359802,"size":1360136837,"categoryP":"video","categoryS":"movies","magnet":"?xt=urn:btih:249baad2f5901f1a3b4d62dba8ab914c49b03eae&amp;dn=The+5th+Wave+2016+TELESYNC+x264+AC3-Garmin&amp;tr=udp%3A%2F%2Ftracker.leechers-paradise.org%3A6969&amp;tr=udp%3A%2F%2Fzer0day.ch%3A1337&amp;tr=udp%3A%2F%2Fopen.demonii.com%3A1337&amp;tr=udp%3A%2F%2Ftracker.coppersurfer.tk%3A6969&amp;tr=udp%3A%2F%2Fexodus.desync.com%3A6969","seeders":7,"leechers":5,"uploader":"makintos13","files":2,"time":1454124751,"description":"screens:\r\n \nhttp://imgmak.com/KAp\r\n \nhttp://imgmak.com/KAR\r\n \nhttp://imgmak.com/KAb\r\n \nhttp://imgmak.com/KAx\r\n \nhttp://imgmak.com/KAz\r\n \nhttp://imgmak.com/KA7\r\n \nhttp://imgmak.com/KAk\r\n \nhttp://imgmak.com/KAm\r\n\r\n\r\nComplete name : The 5th Wave 2016 TELESYNC x264 AC3\r\nFormat : Matroska\r\nFormat version : Version 4 / Version 2\r\nFile size : 1.24 GiB\r\nDuration : 1h 45mn\r\nOverall bit rate : 1 676 Kbps\r\nDURATION : 01:45:31.008000000\r\nNUMBER_OF_FRAMES : 197844\r\nNUMBER_OF_BYTES : 151944192\r\n\r\nVideo\r\nID : 1\r\nFormat : AVC\r\nFormat/Info : Advanced Video Codec\r\nFormat profile :   \r\nFormat settings, CABAC : Yes\r\nFormat settings, ReFrames : 4 frames\r\nCodec ID : V_MPEG4/ISO/AVC\r\nDuration : 1h 45mn\r\nBit rate : 1 451 Kbps\r\nWidth : 720 pixels\r\nHeight : 352 pixels\r\nDisplay aspect ratio : 2.045\r\nFrame rate mode : Constant\r\nFrame rate : 30.000 fps\r\nColor space : YUV\r\nChroma subsampling : 4:2:0\r\nBit depth : 8 bits\r\nScan type : Progressive\r\nBits/(Pixel*Frame) : 0.191\r\nStream size : 1.07 GiB (87%)\r\nWriting library : x264 core 148 r2638 7599210\r\nEncoding settings : cabac=1 / ref=5 / deblock=1:-1:-1 / analyse=0x3:0x133 / me=hex / subme=9 / psy=1 / psy_rd=1.00:0.80 / mixed_ref=1 / me_range=16 / chroma_me=1 / trellis=1 / 8x8dct=1 / cqm=0 / deadzone=21,11 / fast_pskip=1 / chroma_qp_offset=-4 / threads=4 / lookahead_threads=1 / sliced_threads=0 / nr=0 / decimate=1 / interlaced=0 / bluray_compat=0 / constrained_intra=0 / bframes=3 / b_pyramid=1 / b_adapt=2 / b_bias=0 / direct=1 / weightb=1 / open_gop=0 / weightp=2 / keyint=300 / keyint_min=30 / scenecut=50 / intra_refresh=0 / rc_lookahead=50 / rc=crf / mbtree=1 / crf=22.0 / qcomp=0.60 / qpmin=0 / qpmax=69 / qpstep=4 / ip_ratio=1.40 / aq=1:1.50\r\nLanguage : English\r\nDefault : Yes\r\nForced : No\r\n\r\nAudio\r\nID : 2\r\nFormat : AC-3\r\nFormat/Info : Audio Coding 3\r\nMode extension : CM (complete main)\r\nFormat settings, Endianness : Big\r\nCodec ID : A_AC3\r\nDuration : 1h 45mn\r\nBit rate mode : Constant\r\nBit rate : 192 Kbps\r\nChannel(s) : 2 channels\r\nChannel positions : Front: L R\r\nSampling rate : 48.0 KHz\r\nCompression mode : Lossy\r\nStream size : 145 MiB (11%)\r\nLanguage : English\r\nDefault : Yes\r\nForced : Yes\r\nSource Video : 5.V0lna.2016.D.TS.1400Mb\r\nSource Audio : The 5th Wave 2016 HD-TELESYNC x264 AC3-CPG/Th0ravenger \r\nGenre : Action, Adventure, Sci-Fi \r\nRelease Date : 22 January 2016\r\nSample Included : Yes\r\nImdb : http://www.imdb.com/title/tt2304933/\r\n\r\nAfter a small break for the holidays here we are with our first 2016 release. The 5th wave. We used the russian\r\nversion which was not to bad but not perfect. It had all kinds of pixelation and that flicker. Well we fixed the\r\npixelation and towned down the flickering but we couldnt eliminate it to much because then you would get some weird\r\nartefacts. The we adjusted all the colors and gama contrast and toned down the bright spots as best as we could. \r\nFinally we added grain to it and sharpened it so we could mantain the details of the pic. As always check\r\nsample as screens always look better","torrent":{"xt":"urn:btih:249baad2f5901f1a3b4d62dba8ab914c49b03eae","amp;dn":"The+5th+Wave+2016+TELESYNC+x264+AC3-Garmin","amp;tr":["udp%3A%2F%2Ftracker.leechers-paradise.org%3A6969","udp%3A%2F%2Fzer0day.ch%3A1337","udp%3A%2F%2Fopen.demonii.com%3A1337","udp%3A%2F%2Ftracker.coppersurfer.tk%3A6969","udp%3A%2F%2Fexodus.desync.com%3A6969"],"infoHash":"249baad2f5901f1a3b4d62dba8ab914c49b03eae","infoHashBuffer":{"type":"Buffer","data":[36,155,170,210,245,144,31,26,59,77,98,219,168,171,145,76,73,176,62,174]},"announce":[],"urlList":[]}}